<?xml version="1.0"?>
<svg 
    width="128" 
    height="128" 
    viewBox="0 0 128 128" 
    xmlns="http://www.w3.org/2000/svg">

    <!-- Rectangle with larger stroke and smaller corner radius -->
    <rect 
        x="2" 
        y="2" 
        width="124" 
        height="124" 
        rx="6"
        fill="white" 
        stroke="black" 
        stroke-width="2"
    />

    <style type="text/css">
        .st0{fill:none;}
        .st1{fill:#386BFF;}
        .st2{fill:#5DE88B;}
    </style>

    <g>
        <!-- Shifted path 4 pixels to the right and 4 pixels down -->
        <path class="st1" d="M59.4,50.1L41.3,25.5c-1.2-1.6-3.6-1.6-4.7,0L18.4,50.1c-1.4,1.9,0,4.7,2.4,4.7h8.3v50c0,1.6,1.3,2.9,2.9,2.9   h13.8c1.6,0,2.9-1.3,2.9-2.9v-50H57C59.4,54.8,60.8,52.1,59.4,50.1z"/>
        <path class="st2" d="M109.6,77.9L91.5,102.5c-1.2,1.6-3.6,1.6-4.7,0L68.6,77.9c-1.4-1.9,0-4.7,2.4-4.7h8.2v-50   c0-1.6,1.3-2.9,2.9-2.9H96c1.6,0,2.9,1.3,2.9,2.9v50h8.3C109.6,73.2,111,75.9,109.6,77.9z"/>
    </g>
</svg>
